<svg width="4" height="14" viewBox="0 0 4 14" fill="none" xmlns="http://www.w3.org/2000/svg">
<path d="M1.66667 3.33333C2.58333 3.33333 3.33333 2.58333 3.33333 1.66667C3.33333 0.75 2.58333 0 1.66667 0C0.75 0 0 0.75 0 1.66667C0 2.58333 0.75 3.33333 1.66667 3.33333ZM1.66667 5C0.75 5 0 5.75 0 6.66667C0 7.58333 0.75 8.33333 1.66667 8.33333C2.58333 8.33333 3.33333 7.58333 3.33333 6.66667C3.33333 5.75 2.58333 5 1.66667 5ZM1.66667 10C0.75 10 0 10.75 0 11.6667C0 12.5833 0.75 13.3333 1.66667 13.3333C2.58333 13.3333 3.33333 12.5833 3.33333 11.6667C3.33333 10.75 2.58333 10 1.66667 10Z" fill="#3E5462"/>
</svg>
