<svg width="13" height="12" viewBox="0 0 13 12" fill="none" xmlns="http://www.w3.org/2000/svg">
<path d="M0.30731 2.11L4.39427 6L0.30731 9.89C-0.102437 10.28 -0.102437 10.91 0.30731 11.3C0.717057 11.69 1.37896 11.69 1.7887 11.3L6.61111 6.71C7.02085 6.32 7.02085 5.69 6.61111 5.3L1.7887 0.7C1.37896 0.31 0.717057 0.31 0.30731 0.7C-0.0919304 1.09 -0.0919304 1.73 0.30731 2.11ZM11.5596 0C12.1374 0 12.6102 0.45 12.6102 1V11C12.6102 11.55 12.1374 12 11.5596 12C10.9817 12 10.509 11.55 10.509 11V1C10.509 0.45 10.9817 0 11.5596 0Z" fill="#F6F7F9"/>
</svg>

